<mxfile host="app.diagrams.net" modified="2022-08-10T15:48:59.270Z" agent="5.0 (Windows NT 10.0; Win64; x64) AppleWebKit/537.36 (KHTML, like Gecko) Chrome/104.0.0.0 Safari/537.36" etag="BmHFpBxVIN3Sr8S2wHnM" version="20.2.3" type="github">
  <diagram id="HXWuDZ2V8p99u13dubG-" name="Page-1">
    <mxGraphModel dx="1673" dy="934" grid="0" gridSize="10" guides="1" tooltips="1" connect="1" arrows="1" fold="1" page="1" pageScale="1" pageWidth="827" pageHeight="1169" math="0" shadow="0">
      <root>
        <mxCell id="0" />
        <mxCell id="1" parent="0" />
        <mxCell id="DavODV8plqxmo-Jjs9z_-2" value="Diagramme&amp;nbsp; de séquence&amp;nbsp; modifier projet TempsEtMateriel" style="shape=umlFrame;whiteSpace=wrap;html=1;rounded=0;shadow=0;glass=0;sketch=0;fontSize=15;fillColor=none;width=417;height=26;" vertex="1" parent="1">
          <mxGeometry x="12" y="8" width="1180" height="833" as="geometry" />
        </mxCell>
        <mxCell id="DavODV8plqxmo-Jjs9z_-1" value="&lt;font style=&quot;font-size: 15px;&quot;&gt;alt: formulaire valide&lt;/font&gt;" style="shape=umlFrame;whiteSpace=wrap;html=1;width=162;height=22;" vertex="1" parent="1">
          <mxGeometry x="38" y="306" width="384" height="103" as="geometry" />
        </mxCell>
        <mxCell id="DavODV8plqxmo-Jjs9z_-3" value=":TimeAndMaterial&lt;br&gt;Controler" style="shape=umlLifeline;perimeter=lifelinePerimeter;whiteSpace=wrap;html=1;container=1;collapsible=0;recursiveResize=0;outlineConnect=0;rounded=0;shadow=0;glass=0;sketch=0;fillColor=none;fontSize=15;fontColor=#CC6600;strokeColor=#CC6600;" vertex="1" parent="1">
          <mxGeometry x="604" y="65" width="201" height="750" as="geometry" />
        </mxCell>
        <mxCell id="DavODV8plqxmo-Jjs9z_-4" value="" style="html=1;points=[];perimeter=orthogonalPerimeter;rounded=0;shadow=0;glass=0;sketch=0;fontSize=15;fillColor=none;" vertex="1" parent="DavODV8plqxmo-Jjs9z_-3">
          <mxGeometry x="95.5" y="372" width="10" height="310" as="geometry" />
        </mxCell>
        <mxCell id="DavODV8plqxmo-Jjs9z_-5" style="edgeStyle=none;rounded=0;orthogonalLoop=1;jettySize=auto;html=1;fontSize=15;fontColor=#000000;strokeColor=#000000;endArrow=none;endFill=0;dashed=1;" edge="1" parent="1" source="DavODV8plqxmo-Jjs9z_-6" target="DavODV8plqxmo-Jjs9z_-11">
          <mxGeometry relative="1" as="geometry">
            <Array as="points">
              <mxPoint x="238" y="657" />
            </Array>
          </mxGeometry>
        </mxCell>
        <mxCell id="DavODV8plqxmo-Jjs9z_-6" value="" style="shape=umlLifeline;participant=umlActor;perimeter=lifelinePerimeter;whiteSpace=wrap;html=1;container=1;collapsible=0;recursiveResize=0;verticalAlign=top;spacingTop=36;outlineConnect=0;fillColor=none;size=32;sketch=0;shadow=0;rounded=0;glass=0;" vertex="1" parent="1">
          <mxGeometry x="110" y="65" width="20" height="750" as="geometry" />
        </mxCell>
        <mxCell id="DavODV8plqxmo-Jjs9z_-7" value="&lt;span style=&quot;color: rgb(0, 0, 0); font-family: Helvetica; font-size: 15px; font-style: normal; font-variant-ligatures: normal; font-variant-caps: normal; font-weight: 400; letter-spacing: normal; orphans: 2; text-align: center; text-indent: 0px; text-transform: none; widows: 2; word-spacing: 0px; -webkit-text-stroke-width: 0px; background-color: rgb(248, 249, 250); text-decoration-thickness: initial; text-decoration-style: initial; text-decoration-color: initial; float: none; display: inline !important;&quot;&gt;Administrateur&lt;/span&gt;" style="text;whiteSpace=wrap;html=1;fontSize=15;" vertex="1" parent="1">
          <mxGeometry x="72" y="91" width="105" height="36" as="geometry" />
        </mxCell>
        <mxCell id="DavODV8plqxmo-Jjs9z_-8" value=":TimeAndMaterial&lt;br&gt;Service" style="shape=umlLifeline;perimeter=lifelinePerimeter;whiteSpace=wrap;html=1;container=1;collapsible=0;recursiveResize=0;outlineConnect=0;rounded=0;shadow=0;glass=0;sketch=0;fillColor=none;fontSize=15;fontColor=#CC6600;strokeColor=#CC6600;" vertex="1" parent="1">
          <mxGeometry x="899" y="65" width="130" height="750" as="geometry" />
        </mxCell>
        <mxCell id="DavODV8plqxmo-Jjs9z_-9" value="" style="html=1;points=[];perimeter=orthogonalPerimeter;rounded=0;shadow=0;glass=0;sketch=0;fontSize=15;fillColor=none;" vertex="1" parent="DavODV8plqxmo-Jjs9z_-8">
          <mxGeometry x="60" y="382" width="10" height="284" as="geometry" />
        </mxCell>
        <mxCell id="DavODV8plqxmo-Jjs9z_-10" value="" style="shape=umlLifeline;participant=umlEntity;perimeter=lifelinePerimeter;whiteSpace=wrap;html=1;container=1;collapsible=0;recursiveResize=0;verticalAlign=top;spacingTop=36;outlineConnect=0;rounded=0;shadow=0;glass=0;sketch=0;fontSize=15;fillColor=none;fontColor=#CC6600;strokeColor=#CC6600;" vertex="1" parent="1">
          <mxGeometry x="1091" y="65" width="65" height="750" as="geometry" />
        </mxCell>
        <mxCell id="DavODV8plqxmo-Jjs9z_-11" value="" style="html=1;points=[];perimeter=orthogonalPerimeter;rounded=0;shadow=0;glass=0;sketch=0;fontSize=15;fillColor=none;" vertex="1" parent="DavODV8plqxmo-Jjs9z_-10">
          <mxGeometry x="27.5" y="406" width="10" height="235" as="geometry" />
        </mxCell>
        <mxCell id="DavODV8plqxmo-Jjs9z_-12" value="&lt;span style=&quot;font-family: Helvetica; font-size: 15px; font-style: normal; font-variant-ligatures: normal; font-variant-caps: normal; font-weight: 400; letter-spacing: normal; orphans: 2; text-indent: 0px; text-transform: none; widows: 2; word-spacing: 0px; -webkit-text-stroke-width: 0px; background-color: rgb(248, 249, 250); text-decoration-thickness: initial; text-decoration-style: initial; text-decoration-color: initial; float: none; display: inline !important;&quot;&gt;Base de donnée&lt;br&gt;Livraison&lt;br&gt;&lt;/span&gt;" style="text;whiteSpace=wrap;html=1;fontSize=15;align=center;fillColor=default;fontColor=#CC6600;" vertex="1" parent="DavODV8plqxmo-Jjs9z_-10">
          <mxGeometry x="-21" y="47" width="119" height="48" as="geometry" />
        </mxCell>
        <mxCell id="DavODV8plqxmo-Jjs9z_-13" value="" style="shape=umlLifeline;participant=umlBoundary;perimeter=lifelinePerimeter;whiteSpace=wrap;html=1;container=1;collapsible=0;recursiveResize=0;verticalAlign=top;spacingTop=36;outlineConnect=0;rounded=0;shadow=0;glass=0;sketch=0;fontSize=15;fillColor=none;fontColor=#CC6600;strokeColor=#CC6600;" vertex="1" parent="1">
          <mxGeometry x="273" y="65" width="65" height="750" as="geometry" />
        </mxCell>
        <mxCell id="DavODV8plqxmo-Jjs9z_-14" value="&lt;span style=&quot;font-family: Helvetica; font-size: 15px; font-style: normal; font-variant-ligatures: normal; font-variant-caps: normal; font-weight: 400; letter-spacing: normal; orphans: 2; text-indent: 0px; text-transform: none; widows: 2; word-spacing: 0px; -webkit-text-stroke-width: 0px; background-color: rgb(248, 249, 250); text-decoration-thickness: initial; text-decoration-style: initial; text-decoration-color: initial; float: none; display: inline !important;&quot;&gt;Interface IHM&lt;/span&gt;&lt;br style=&quot;font-family: Helvetica; font-size: 15px; font-style: normal; font-variant-ligatures: normal; font-variant-caps: normal; font-weight: 400; letter-spacing: normal; orphans: 2; text-indent: 0px; text-transform: none; widows: 2; word-spacing: 0px; -webkit-text-stroke-width: 0px; background-color: rgb(248, 249, 250); text-decoration-thickness: initial; text-decoration-style: initial; text-decoration-color: initial;&quot;&gt;&lt;span style=&quot;font-family: Helvetica; font-size: 15px; font-style: normal; font-variant-ligatures: normal; font-variant-caps: normal; font-weight: 400; letter-spacing: normal; orphans: 2; text-indent: 0px; text-transform: none; widows: 2; word-spacing: 0px; -webkit-text-stroke-width: 0px; background-color: rgb(248, 249, 250); text-decoration-thickness: initial; text-decoration-style: initial; text-decoration-color: initial; float: none; display: inline !important;&quot;&gt;TempsEtMateriel&lt;/span&gt;" style="text;whiteSpace=wrap;html=1;fontSize=15;align=center;fillColor=default;fontColor=#CC6600;" vertex="1" parent="DavODV8plqxmo-Jjs9z_-13">
          <mxGeometry x="-24" y="44" width="122" height="45" as="geometry" />
        </mxCell>
        <mxCell id="DavODV8plqxmo-Jjs9z_-15" value="" style="html=1;points=[];perimeter=orthogonalPerimeter;rounded=0;shadow=0;glass=0;sketch=0;fontSize=15;fillColor=none;" vertex="1" parent="DavODV8plqxmo-Jjs9z_-13">
          <mxGeometry x="27.5" y="143" width="10" height="580" as="geometry" />
        </mxCell>
        <mxCell id="DavODV8plqxmo-Jjs9z_-16" value="valider&lt;br&gt;formulaire" style="edgeStyle=orthogonalEdgeStyle;html=1;align=left;spacingLeft=2;endArrow=block;rounded=0;fontSize=15;" edge="1" parent="DavODV8plqxmo-Jjs9z_-13" source="DavODV8plqxmo-Jjs9z_-15" target="DavODV8plqxmo-Jjs9z_-15">
          <mxGeometry relative="1" as="geometry">
            <mxPoint x="36" y="306" as="sourcePoint" />
            <Array as="points">
              <mxPoint x="67" y="306" />
              <mxPoint x="67" y="334" />
            </Array>
            <mxPoint x="36" y="334" as="targetPoint" />
          </mxGeometry>
        </mxCell>
        <mxCell id="DavODV8plqxmo-Jjs9z_-17" value="" style="edgeStyle=elbowEdgeStyle;fontSize=12;html=1;endArrow=blockThin;endFill=1;rounded=0;" edge="1" parent="1" source="DavODV8plqxmo-Jjs9z_-6" target="DavODV8plqxmo-Jjs9z_-15">
          <mxGeometry width="160" relative="1" as="geometry">
            <mxPoint x="628" y="319" as="sourcePoint" />
            <mxPoint x="788" y="319" as="targetPoint" />
            <Array as="points">
              <mxPoint x="190" y="237" />
              <mxPoint x="171" y="210" />
            </Array>
          </mxGeometry>
        </mxCell>
        <mxCell id="DavODV8plqxmo-Jjs9z_-18" value="demander modifier projet" style="edgeLabel;html=1;align=center;verticalAlign=middle;resizable=0;points=[];fontSize=15;" vertex="1" connectable="0" parent="DavODV8plqxmo-Jjs9z_-17">
          <mxGeometry x="-0.3952" relative="1" as="geometry">
            <mxPoint x="30" y="-12" as="offset" />
          </mxGeometry>
        </mxCell>
        <mxCell id="DavODV8plqxmo-Jjs9z_-19" value="" style="edgeStyle=elbowEdgeStyle;fontSize=12;html=1;endArrow=blockThin;endFill=1;rounded=0;" edge="1" parent="1" source="DavODV8plqxmo-Jjs9z_-4" target="DavODV8plqxmo-Jjs9z_-9">
          <mxGeometry width="160" relative="1" as="geometry">
            <mxPoint x="394" y="304" as="sourcePoint" />
            <mxPoint x="554" y="304" as="targetPoint" />
            <Array as="points">
              <mxPoint x="778" y="466" />
              <mxPoint x="753" y="257" />
              <mxPoint x="602" y="242" />
              <mxPoint x="527" y="271" />
            </Array>
          </mxGeometry>
        </mxCell>
        <mxCell id="DavODV8plqxmo-Jjs9z_-20" value="updateTimeAndMaterialActivity(deal)" style="edgeLabel;html=1;align=center;verticalAlign=middle;resizable=0;points=[];fontSize=15;" vertex="1" connectable="0" parent="DavODV8plqxmo-Jjs9z_-19">
          <mxGeometry x="0.1239" relative="1" as="geometry">
            <mxPoint x="-16" y="-14" as="offset" />
          </mxGeometry>
        </mxCell>
        <mxCell id="DavODV8plqxmo-Jjs9z_-21" value="" style="edgeStyle=elbowEdgeStyle;fontSize=12;html=1;endArrow=blockThin;endFill=1;rounded=0;" edge="1" parent="1" source="DavODV8plqxmo-Jjs9z_-9" target="DavODV8plqxmo-Jjs9z_-11">
          <mxGeometry width="160" relative="1" as="geometry">
            <mxPoint x="474" y="304" as="sourcePoint" />
            <mxPoint x="634" y="304" as="targetPoint" />
            <Array as="points">
              <mxPoint x="1060" y="480" />
              <mxPoint x="969" y="491" />
              <mxPoint x="766" y="267" />
            </Array>
          </mxGeometry>
        </mxCell>
        <mxCell id="DavODV8plqxmo-Jjs9z_-22" value="save(deal)" style="edgeLabel;html=1;align=center;verticalAlign=middle;resizable=0;points=[];fontSize=15;" vertex="1" connectable="0" parent="DavODV8plqxmo-Jjs9z_-21">
          <mxGeometry x="-0.3561" y="2" relative="1" as="geometry">
            <mxPoint x="23" y="-9" as="offset" />
          </mxGeometry>
        </mxCell>
        <mxCell id="DavODV8plqxmo-Jjs9z_-23" value="&lt;font color=&quot;#009900&quot;&gt;projet&lt;/font&gt;" style="html=1;verticalAlign=bottom;endArrow=open;dashed=1;endSize=8;rounded=0;fontSize=15;strokeColor=#009900;" edge="1" parent="1" source="DavODV8plqxmo-Jjs9z_-11" target="DavODV8plqxmo-Jjs9z_-9">
          <mxGeometry relative="1" as="geometry">
            <mxPoint x="806" y="291" as="sourcePoint" />
            <mxPoint x="668" y="291" as="targetPoint" />
            <Array as="points">
              <mxPoint x="1025" y="519" />
            </Array>
          </mxGeometry>
        </mxCell>
        <mxCell id="DavODV8plqxmo-Jjs9z_-24" value="&lt;font color=&quot;#009900&quot;&gt;projet&lt;/font&gt;" style="html=1;verticalAlign=bottom;endArrow=open;dashed=1;endSize=8;rounded=0;fontSize=15;strokeColor=#009900;" edge="1" parent="1" source="DavODV8plqxmo-Jjs9z_-9" target="DavODV8plqxmo-Jjs9z_-4">
          <mxGeometry relative="1" as="geometry">
            <mxPoint x="658" y="296" as="sourcePoint" />
            <mxPoint x="477" y="296" as="targetPoint" />
            <Array as="points">
              <mxPoint x="895" y="538" />
            </Array>
          </mxGeometry>
        </mxCell>
        <mxCell id="DavODV8plqxmo-Jjs9z_-25" value=":Serveur d&#39;application&lt;br&gt;TimeAndMaterial" style="shape=umlLifeline;perimeter=lifelinePerimeter;whiteSpace=wrap;html=1;container=1;collapsible=0;recursiveResize=0;outlineConnect=0;rounded=0;shadow=0;glass=0;sketch=0;fillColor=none;fontSize=15;fontColor=#CC6600;strokeColor=#CC6600;" vertex="1" parent="1">
          <mxGeometry x="422" y="65" width="160" height="750" as="geometry" />
        </mxCell>
        <mxCell id="DavODV8plqxmo-Jjs9z_-26" value="" style="html=1;points=[];perimeter=orthogonalPerimeter;" vertex="1" parent="DavODV8plqxmo-Jjs9z_-25">
          <mxGeometry x="73" y="165" width="10" height="66" as="geometry" />
        </mxCell>
        <mxCell id="DavODV8plqxmo-Jjs9z_-27" value="" style="html=1;points=[];perimeter=orthogonalPerimeter;" vertex="1" parent="DavODV8plqxmo-Jjs9z_-25">
          <mxGeometry x="73" y="367" width="10" height="337" as="geometry" />
        </mxCell>
        <mxCell id="DavODV8plqxmo-Jjs9z_-28" value="" style="fontSize=12;html=1;endArrow=blockThin;endFill=1;rounded=0;" edge="1" parent="1" source="DavODV8plqxmo-Jjs9z_-15" target="DavODV8plqxmo-Jjs9z_-26">
          <mxGeometry width="160" relative="1" as="geometry">
            <mxPoint x="294" y="256" as="sourcePoint" />
            <mxPoint x="599" y="366" as="targetPoint" />
            <Array as="points">
              <mxPoint x="382" y="238" />
            </Array>
          </mxGeometry>
        </mxCell>
        <mxCell id="DavODV8plqxmo-Jjs9z_-29" value="formulaire()" style="edgeLabel;html=1;align=center;verticalAlign=middle;resizable=0;points=[];fontSize=15;" vertex="1" connectable="0" parent="DavODV8plqxmo-Jjs9z_-28">
          <mxGeometry x="-0.0064" y="-3" relative="1" as="geometry">
            <mxPoint x="-3" y="-16" as="offset" />
          </mxGeometry>
        </mxCell>
        <mxCell id="DavODV8plqxmo-Jjs9z_-30" value="&lt;font style=&quot;font-size: 15px;&quot;&gt;formulaire rempli&lt;/font&gt;" style="html=1;verticalAlign=bottom;endArrow=open;dashed=1;endSize=8;rounded=0;" edge="1" parent="1" source="DavODV8plqxmo-Jjs9z_-26" target="DavODV8plqxmo-Jjs9z_-15">
          <mxGeometry relative="1" as="geometry">
            <mxPoint x="438" y="323" as="sourcePoint" />
            <mxPoint x="358" y="323" as="targetPoint" />
            <Array as="points">
              <mxPoint x="411" y="280" />
            </Array>
          </mxGeometry>
        </mxCell>
        <mxCell id="DavODV8plqxmo-Jjs9z_-31" value="&lt;font style=&quot;font-size: 15px;&quot;&gt;formulaire&lt;/font&gt;" style="html=1;verticalAlign=bottom;endArrow=open;dashed=1;endSize=8;rounded=0;" edge="1" parent="1">
          <mxGeometry relative="1" as="geometry">
            <mxPoint x="300.5" y="298" as="sourcePoint" />
            <mxPoint x="119.66666666666697" y="298" as="targetPoint" />
            <Array as="points">
              <mxPoint x="253" y="298" />
            </Array>
          </mxGeometry>
        </mxCell>
        <mxCell id="DavODV8plqxmo-Jjs9z_-32" value="" style="fontSize=12;html=1;endArrow=blockThin;endFill=1;rounded=0;" edge="1" parent="1" source="DavODV8plqxmo-Jjs9z_-6" target="DavODV8plqxmo-Jjs9z_-15">
          <mxGeometry width="160" relative="1" as="geometry">
            <mxPoint x="338" y="365" as="sourcePoint" />
            <mxPoint x="498" y="365" as="targetPoint" />
            <Array as="points">
              <mxPoint x="255" y="354" />
            </Array>
          </mxGeometry>
        </mxCell>
        <mxCell id="DavODV8plqxmo-Jjs9z_-33" value="modifier formulaire" style="edgeLabel;html=1;align=center;verticalAlign=middle;resizable=0;points=[];fontSize=15;" vertex="1" connectable="0" parent="DavODV8plqxmo-Jjs9z_-32">
          <mxGeometry x="0.1281" y="-4" relative="1" as="geometry">
            <mxPoint x="-3" y="-16" as="offset" />
          </mxGeometry>
        </mxCell>
        <mxCell id="DavODV8plqxmo-Jjs9z_-34" value="" style="fontSize=12;html=1;endArrow=blockThin;endFill=1;rounded=0;" edge="1" parent="1" source="DavODV8plqxmo-Jjs9z_-15" target="DavODV8plqxmo-Jjs9z_-27">
          <mxGeometry width="160" relative="1" as="geometry">
            <mxPoint x="462" y="345" as="sourcePoint" />
            <mxPoint x="622" y="345" as="targetPoint" />
            <Array as="points">
              <mxPoint x="389" y="442" />
            </Array>
          </mxGeometry>
        </mxCell>
        <mxCell id="DavODV8plqxmo-Jjs9z_-35" value="save()" style="edgeLabel;html=1;align=center;verticalAlign=middle;resizable=0;points=[];labelBackgroundColor=none;fontSize=15;" vertex="1" connectable="0" parent="DavODV8plqxmo-Jjs9z_-34">
          <mxGeometry x="-0.0806" y="1" relative="1" as="geometry">
            <mxPoint x="1" y="-10" as="offset" />
          </mxGeometry>
        </mxCell>
        <mxCell id="DavODV8plqxmo-Jjs9z_-36" value="" style="fontSize=12;html=1;endArrow=blockThin;endFill=1;rounded=0;" edge="1" parent="1" source="DavODV8plqxmo-Jjs9z_-27" target="DavODV8plqxmo-Jjs9z_-4">
          <mxGeometry width="160" relative="1" as="geometry">
            <mxPoint x="518" y="289" as="sourcePoint" />
            <mxPoint x="678" y="289" as="targetPoint" />
            <Array as="points">
              <mxPoint x="525" y="451" />
            </Array>
          </mxGeometry>
        </mxCell>
        <mxCell id="DavODV8plqxmo-Jjs9z_-37" value="&lt;span style=&quot;font-size: 15px;&quot;&gt;update(deal)&lt;/span&gt;" style="edgeLabel;html=1;align=center;verticalAlign=middle;resizable=0;points=[];labelBackgroundColor=none;fontSize=15;" vertex="1" connectable="0" parent="DavODV8plqxmo-Jjs9z_-36">
          <mxGeometry x="0.25" relative="1" as="geometry">
            <mxPoint x="-23" y="-11" as="offset" />
          </mxGeometry>
        </mxCell>
        <mxCell id="DavODV8plqxmo-Jjs9z_-38" value="&lt;font color=&quot;#009900&quot;&gt;projet, statut 200&lt;/font&gt;" style="html=1;verticalAlign=bottom;endArrow=open;dashed=1;endSize=8;rounded=0;fontSize=15;strokeColor=#009900;" edge="1" parent="1" source="DavODV8plqxmo-Jjs9z_-4" target="DavODV8plqxmo-Jjs9z_-27">
          <mxGeometry relative="1" as="geometry">
            <mxPoint x="661" y="538" as="sourcePoint" />
            <mxPoint x="409.9999999999998" y="538" as="targetPoint" />
            <Array as="points">
              <mxPoint x="633" y="566" />
            </Array>
          </mxGeometry>
        </mxCell>
        <mxCell id="DavODV8plqxmo-Jjs9z_-39" value="&lt;font color=&quot;#009900&quot;&gt;Rediriger vers liste projets,&lt;br&gt;pop-up vert&lt;br&gt;&lt;/font&gt;" style="html=1;verticalAlign=bottom;endArrow=open;dashed=1;endSize=8;rounded=0;fontSize=15;strokeColor=#009900;" edge="1" parent="1" source="DavODV8plqxmo-Jjs9z_-27" target="DavODV8plqxmo-Jjs9z_-15">
          <mxGeometry x="-0.0136" y="-4" relative="1" as="geometry">
            <mxPoint x="673.9999999999998" y="541" as="sourcePoint" />
            <mxPoint x="507" y="541" as="targetPoint" />
            <Array as="points">
              <mxPoint x="459" y="589" />
            </Array>
            <mxPoint as="offset" />
          </mxGeometry>
        </mxCell>
        <mxCell id="DavODV8plqxmo-Jjs9z_-40" value="&lt;font color=&quot;#000000&quot;&gt;liste projets&lt;/font&gt;" style="html=1;verticalAlign=bottom;endArrow=open;dashed=1;endSize=8;rounded=0;fontSize=15;fontColor=#009900;strokeColor=#000000;" edge="1" parent="1" source="DavODV8plqxmo-Jjs9z_-15" target="DavODV8plqxmo-Jjs9z_-6">
          <mxGeometry relative="1" as="geometry">
            <mxPoint x="606" y="575" as="sourcePoint" />
            <mxPoint x="526" y="575" as="targetPoint" />
            <Array as="points">
              <mxPoint x="274" y="616" />
            </Array>
          </mxGeometry>
        </mxCell>
        <mxCell id="DavODV8plqxmo-Jjs9z_-41" value="" style="group" vertex="1" connectable="0" parent="1">
          <mxGeometry x="22" y="388" width="1126" height="413" as="geometry" />
        </mxCell>
        <mxCell id="DavODV8plqxmo-Jjs9z_-42" value="&lt;div style=&quot;text-align: left; font-size: 15px;&quot;&gt;&lt;span style=&quot;background-color: initial; font-size: 15px;&quot;&gt;[Projet&amp;nbsp;&lt;/span&gt;&lt;span style=&quot;background-color: initial; text-align: right; font-size: 15px;&quot;&gt;Valide]&lt;/span&gt;&lt;/div&gt;" style="text;html=1;strokeColor=none;fillColor=none;align=center;verticalAlign=middle;whiteSpace=wrap;rounded=0;fontSize=15;fontColor=#009900;" vertex="1" parent="DavODV8plqxmo-Jjs9z_-41">
          <mxGeometry x="77.00000000000001" y="107.74308046791917" width="179.48" height="24.354023395958876" as="geometry" />
        </mxCell>
        <mxCell id="DavODV8plqxmo-Jjs9z_-43" value="[Projet Invalide]" style="text;html=1;strokeColor=none;fillColor=none;align=center;verticalAlign=middle;whiteSpace=wrap;rounded=0;fontSize=16;fontColor=#FF5521;" vertex="1" parent="DavODV8plqxmo-Jjs9z_-41">
          <mxGeometry x="103.24000000000001" y="282.00179723502305" width="127" height="22.6036866359447" as="geometry" />
        </mxCell>
        <mxCell id="DavODV8plqxmo-Jjs9z_-44" value="ALT" style="shape=umlFrame;whiteSpace=wrap;html=1;width=45;height=30;" vertex="1" parent="DavODV8plqxmo-Jjs9z_-41">
          <mxGeometry x="19" y="110" width="1107" height="299" as="geometry" />
        </mxCell>
        <mxCell id="DavODV8plqxmo-Jjs9z_-45" value="&lt;font color=&quot;#cc0000&quot;&gt;projet&lt;/font&gt;" style="html=1;verticalAlign=bottom;endArrow=open;dashed=1;endSize=8;rounded=0;fontSize=15;fontColor=#000000;strokeColor=#CC0000;" edge="1" parent="1" source="DavODV8plqxmo-Jjs9z_-11" target="DavODV8plqxmo-Jjs9z_-9">
          <mxGeometry relative="1" as="geometry">
            <mxPoint x="680" y="696" as="sourcePoint" />
            <mxPoint x="600" y="696" as="targetPoint" />
            <Array as="points">
              <mxPoint x="1038" y="686" />
            </Array>
          </mxGeometry>
        </mxCell>
        <mxCell id="DavODV8plqxmo-Jjs9z_-46" value="&lt;font color=&quot;#cc0000&quot;&gt;projet&lt;/font&gt;" style="html=1;verticalAlign=bottom;endArrow=open;dashed=1;endSize=8;rounded=0;fontSize=15;fontColor=#000000;strokeColor=#CC0000;" edge="1" parent="1" source="DavODV8plqxmo-Jjs9z_-9" target="DavODV8plqxmo-Jjs9z_-4">
          <mxGeometry relative="1" as="geometry">
            <mxPoint x="915" y="726" as="sourcePoint" />
            <mxPoint x="744" y="726" as="targetPoint" />
            <Array as="points">
              <mxPoint x="879" y="714" />
            </Array>
          </mxGeometry>
        </mxCell>
        <mxCell id="DavODV8plqxmo-Jjs9z_-47" value="&lt;font color=&quot;#cc0000&quot;&gt;projet, statut 500&lt;/font&gt;" style="html=1;verticalAlign=bottom;endArrow=open;dashed=1;endSize=8;rounded=0;fontSize=15;fontColor=#000000;strokeColor=#CC0000;" edge="1" parent="1" source="DavODV8plqxmo-Jjs9z_-4" target="DavODV8plqxmo-Jjs9z_-27">
          <mxGeometry relative="1" as="geometry">
            <mxPoint x="651" y="723" as="sourcePoint" />
            <mxPoint x="399.9999999999998" y="723" as="targetPoint" />
            <Array as="points">
              <mxPoint x="619" y="731" />
            </Array>
          </mxGeometry>
        </mxCell>
        <mxCell id="DavODV8plqxmo-Jjs9z_-48" value="&lt;font color=&quot;#cc0000&quot;&gt;Rediriger vers liste projets,&lt;br&gt;pop-up rouge&lt;/font&gt;" style="html=1;verticalAlign=bottom;endArrow=open;dashed=1;endSize=8;rounded=0;fontSize=15;strokeColor=#CC0000;" edge="1" parent="1" source="DavODV8plqxmo-Jjs9z_-27" target="DavODV8plqxmo-Jjs9z_-15">
          <mxGeometry x="-0.0136" y="-4" relative="1" as="geometry">
            <mxPoint x="495" y="731" as="sourcePoint" />
            <mxPoint x="310.5" y="731" as="targetPoint" />
            <Array as="points">
              <mxPoint x="445" y="759" />
            </Array>
            <mxPoint as="offset" />
          </mxGeometry>
        </mxCell>
        <mxCell id="DavODV8plqxmo-Jjs9z_-49" value="&lt;font color=&quot;#000000&quot;&gt;liste projets&lt;/font&gt;" style="html=1;verticalAlign=bottom;endArrow=open;dashed=1;endSize=8;rounded=0;fontSize=15;fontColor=#009900;strokeColor=#000000;" edge="1" parent="1" source="DavODV8plqxmo-Jjs9z_-15" target="DavODV8plqxmo-Jjs9z_-6">
          <mxGeometry relative="1" as="geometry">
            <mxPoint x="293.83" y="785" as="sourcePoint" />
            <mxPoint x="112.99666666666674" y="785" as="targetPoint" />
            <Array as="points">
              <mxPoint x="231" y="774" />
            </Array>
          </mxGeometry>
        </mxCell>
      </root>
    </mxGraphModel>
  </diagram>
</mxfile>
